# xmcd
#
# Track frame offsets:
#	150
#	16402
#	29445
#	42485
#	53735
#	68102
#	82592
#	92635
#	104592
#	115932
#	126855
#	138670
#	173145
#	187872
#	207370
#	223745
#	236235
#	248020
#	261235
#	274215
#	289732
#	317100
#	323687
#
# Disc length: 4580 seconds
#
# Revision: 2
# Processed by: cddbd v1.5.2PL0 Copyright (c) Steve Scherf et al.
# Submitted via: EZCDAudioConverter 2.1.7.1
#
DISCID=5511e217
DTITLE=V/A - Funk Drops 2/3
DYEAR=2002
DGENRE=
TTITLE0=Bobby Byrd - Try It Again
TTITLE1=Noble Knights - Sing A Simple Song
TTITLE2=Mighty Hannibal - Somebody In The World For You
TTITLE3=The Watts 103rd Street Rhythm Band - Everyday People (In The Jungle)
TTITLE4=The Meters - Chicken Strut
TTITLE5=Aretha Franklin - Rock Steady
TTITLE6=Fabulous Counts - Lunar Funk
TTITLE7=The Mohawks - The Champ
TTITLE8=The Beginning Of The End - Funky Nassau (Part 2)
TTITLE9=T.S.U. Toronadoes - Getting The Corners
TTITLE10=Southshore Commission - Right On Brother (Part 1)
TTITLE11=King Curtis - Memphis Soul Stew [Live]
TTITLE12=Baby Huey and The Baby Sitters - Hard Times
TTITLE13=Curtis Mayfield - If There's A Hell Below, We're All Going To Go [Tak
TTITLE13=es 1 and 2 Tracking Excerpt]
TTITLE14=Little Sister - Stanga
TTITLE15=Betty Wright - Clean Up Woman
TTITLE16=Society's Bag - Let It Crawl
TTITLE17=Allen Toussaint - Goin' Down
TTITLE18=Dr. John - Right Place, Wrong Time
TTITLE19=The Meters - Chug Chug Chug-A-Lug (Push and Shove) (Part 2)
TTITLE20=Cold Blood - Kissing My Love
TTITLE21=Tower Of Power - Stroke '75
TTITLE22=T.J. Kirk - Soul Power (Part 1 and 2)
EXTD=
EXTT0=
EXTT1=
EXTT2=
EXTT3=
EXTT4=
EXTT5=
EXTT6=
EXTT7=
EXTT8=
EXTT9=
EXTT10=
EXTT11=
EXTT12=
EXTT13=
EXTT14=
EXTT15=
EXTT16=
EXTT17=
EXTT18=
EXTT19=
EXTT20=
EXTT21=
EXTT22=
PLAYORDER=
